<svg width="55" height="25" viewBox="0 0 55 25" fill="none" xmlns="http://www.w3.org/2000/svg">
<path d="M40.6443 21.4265V5.66276H44.2256V7.132C45.4295 5.94844 46.96 5.35667 48.8169 5.35667C50.0209 5.35667 51.082 5.62195 52.0003 6.15251C52.939 6.68306 53.6736 7.41769 54.2042 8.35637C54.7347 9.27464 55 10.3562 55 11.6009V21.4265H51.4187V12.1519C51.4187 11.0092 51.0922 10.1113 50.4392 9.4583C49.7862 8.8053 48.9088 8.4788 47.8068 8.4788C47.0314 8.4788 46.3376 8.64205 45.7254 8.96855C45.1336 9.27464 44.6337 9.71337 44.2256 10.2847V21.4265H40.6443Z" fill="white"/>
<path d="M32.6059 21.7326C31.055 21.7326 29.647 21.3755 28.3818 20.6613C27.137 19.9267 26.1473 18.9472 25.4127 17.7228C24.6781 16.478 24.3108 15.0904 24.3108 13.5599C24.3108 12.0295 24.6781 10.6521 25.4127 9.42771C26.1473 8.18294 27.137 7.20344 28.3818 6.48923C29.647 5.75461 31.055 5.3873 32.6059 5.3873C34.1771 5.3873 35.5852 5.75461 36.8299 6.48923C38.0951 7.20344 39.095 8.18294 39.8296 9.42771C40.5643 10.6521 40.9316 12.0295 40.9316 13.5599C40.9316 15.0904 40.5643 16.478 39.8296 17.7228C39.095 18.9472 38.0951 19.9267 36.8299 20.6613C35.5852 21.3755 34.1771 21.7326 32.6059 21.7326ZM32.6059 18.6105C33.5037 18.6105 34.3098 18.386 35.024 17.9371C35.7586 17.4881 36.3402 16.8861 36.7687 16.1311C37.1973 15.3557 37.4115 14.4986 37.4115 13.5599C37.4115 12.6009 37.1973 11.7438 36.7687 10.9888C36.3402 10.2338 35.7586 9.63177 35.024 9.18284C34.3098 8.7339 33.5037 8.50943 32.6059 8.50943C31.7284 8.50943 30.9224 8.7339 30.1878 9.18284C29.4531 9.63177 28.8716 10.2338 28.443 10.9888C28.0349 11.7438 27.8308 12.6009 27.8308 13.5599C27.8308 14.4986 28.0349 15.3557 28.443 16.1311C28.8716 16.8861 29.4531 17.4881 30.1878 17.9371C30.9224 18.386 31.7284 18.6105 32.6059 18.6105Z" fill="white"/>
<path fill-rule="evenodd" clip-rule="evenodd" d="M19.965 21.142C18.4715 21.6302 17.0125 21.7315 15.588 21.4458C14.1829 21.1537 12.9313 20.5431 11.8332 19.614C10.7482 18.6591 9.96786 17.4543 9.49228 15.9996C9.01671 14.545 8.92812 13.1248 9.22652 11.7391C9.52492 10.3534 10.1353 9.13405 11.0578 8.08108C11.9738 7.00871 13.1398 6.24108 14.5557 5.77819C15.9716 5.31529 17.3368 5.25543 18.6513 5.59859C19.9851 5.9354 21.1686 6.60046 22.2018 7.59375C23.2287 8.56765 23.9894 9.81105 24.484 11.3239L24.7789 12.2258L13.3159 15.9734C13.712 16.6597 14.2154 17.2143 14.826 17.6373C15.4366 18.0603 16.1255 18.3288 16.8928 18.443C17.6537 18.5377 18.4124 18.4614 19.1688 18.2141C19.8671 17.9859 20.4916 17.6636 21.0426 17.2473C21.0792 17.2202 21.1153 17.1928 21.1508 17.1651H25.2343C24.5704 18.155 23.8171 18.9702 22.9745 19.6106C22.1319 20.2511 21.1287 20.7615 19.965 21.142ZM20.5957 10.8562L12.4785 13.5099C12.3991 12.7415 12.458 12.0352 12.6553 11.391C12.872 10.7405 13.2141 10.1779 13.6814 9.70303C14.1682 9.22187 14.751 8.87032 15.4299 8.64838C16.0893 8.43279 16.7413 8.39139 17.3859 8.52417C18.0435 8.63122 18.6518 8.88318 19.211 9.28005C19.7701 9.67692 20.2317 10.2023 20.5957 10.8562Z" fill="white"/>
<path d="M14.4722 0H11.0134L0 24.2187H3.48557L14.4722 0Z" fill="white"/>
<path d="M9.10352 24.3177V21.4026H25.1369V24.3177H9.10352Z" fill="white"/>
</svg>
